<svg width="138" height="138" viewBox="0 0 138 138" fill="none" xmlns="http://www.w3.org/2000/svg">
    <path d="M65.6486 4.31818L68.6713 12.8892H68.7907L71.8134 4.31818H73.106L69.3674 14.5H68.0946L64.356 4.31818H65.6486Z" fill="black"/>
    <path d="M86.6865 6.78335L83.9395 16.5876L82.8097 16.2711L85.5567 6.46681L86.6865 6.78335Z" fill="black"/>
    <path d="M96.6441 22.2343C96.2306 21.9829 95.9027 21.6768 95.6605 21.3162C95.4199 20.9526 95.2909 20.5619 95.2735 20.144C95.2578 19.7233 95.3792 19.3006 95.6375 18.8758C95.8648 18.502 96.1227 18.2437 96.4112 18.1011C96.7014 17.9556 97.0101 17.8912 97.3374 17.9079C97.6647 17.9247 97.9969 17.9909 98.3338 18.1066C98.6753 18.2211 99.0097 18.3507 99.3368 18.4954C99.7642 18.6855 100.109 18.8427 100.371 18.9671C100.637 19.0903 100.847 19.1538 101 19.1575C101.155 19.163 101.282 19.085 101.381 18.9236L101.401 18.8896C101.656 18.4705 101.739 18.0751 101.651 17.7034C101.566 17.3334 101.292 17.0081 100.831 16.7274C100.352 16.4363 99.9134 16.3129 99.5141 16.3572C99.1148 16.4014 98.7876 16.5089 98.5325 16.6796L97.7876 15.7611C98.1986 15.468 98.6129 15.2971 99.0304 15.2484C99.4525 15.1986 99.8587 15.2323 100.249 15.3495C100.644 15.4655 101.006 15.6234 101.334 15.8232C101.544 15.9506 101.769 16.1225 102.01 16.3388C102.255 16.554 102.459 16.8155 102.621 17.1234C102.785 17.4331 102.859 17.7939 102.841 18.2059C102.823 18.6179 102.657 19.083 102.342 19.6012L99.7275 23.9L98.725 23.2904L99.2623 22.4068L99.2114 22.3758C99.0573 22.4761 98.8519 22.5587 98.5951 22.6237C98.3384 22.6887 98.0439 22.6977 97.7116 22.6508C97.3794 22.6039 97.0235 22.4651 96.6441 22.2343ZM97.3446 21.4268C97.7411 21.6679 98.1226 21.7932 98.4892 21.8028C98.8586 21.8141 99.1876 21.7388 99.4762 21.5768C99.7676 21.4165 99.996 21.2004 100.161 20.9286L100.719 20.0111C100.646 20.0362 100.524 20.0261 100.354 19.9807C100.188 19.9343 100.002 19.8698 99.7963 19.7873C99.595 19.7037 99.3997 19.6198 99.2104 19.5357C99.0256 19.4505 98.8751 19.3822 98.7588 19.3309C98.4776 19.2065 98.2005 19.1136 97.9275 19.0523C97.659 18.9898 97.4097 18.9915 97.1797 19.0572C96.9542 19.1218 96.764 19.2815 96.609 19.5364C96.3971 19.8847 96.3658 20.2264 96.515 20.5615C96.6688 20.8956 96.9453 21.184 97.3446 21.4268Z"
          fill="black"/>
    <path d="M108.34 31.5129C107.905 31.0478 107.639 30.5275 107.542 29.952C107.446 29.3742 107.521 28.7835 107.764 28.1797C108.01 27.5737 108.428 26.9947 109.019 26.4428C109.605 25.8953 110.208 25.5207 110.827 25.3191C111.446 25.1175 112.04 25.0862 112.61 25.2252C113.18 25.3643 113.684 25.6688 114.123 26.1387C114.462 26.502 114.67 26.8456 114.746 27.1695C114.826 27.4935 114.842 27.7825 114.793 28.0364C114.749 28.2905 114.708 28.4943 114.67 28.6478L114.738 28.7204L117.485 26.155L118.286 27.0125L110.845 33.9622L110.071 33.1338L110.929 32.3329L110.834 32.2312C110.673 32.2632 110.461 32.2935 110.197 32.322C109.936 32.3483 109.644 32.3102 109.322 32.2077C109.002 32.103 108.674 31.8714 108.34 31.5129ZM109.218 30.9097C109.54 31.2537 109.901 31.4607 110.302 31.5306C110.705 31.5984 111.124 31.5447 111.559 31.3696C111.997 31.1922 112.426 30.9068 112.848 30.5131C113.265 30.124 113.573 29.723 113.772 29.31C113.974 28.8948 114.051 28.4871 114.004 28.0868C113.959 27.6843 113.773 27.3086 113.448 26.9598C113.108 26.5965 112.732 26.3808 112.32 26.3128C111.912 26.2449 111.492 26.2986 111.062 26.4738C110.636 26.6492 110.227 26.9202 109.835 27.2867C109.437 27.6577 109.133 28.0553 108.922 28.4796C108.715 28.904 108.628 29.3255 108.66 29.744C108.698 30.1627 108.884 30.5512 109.218 30.9097Z"
          fill="black"/>
    <path d="M119.327 58.1902C119.212 57.6353 119.184 57.1434 119.244 56.7146C119.301 56.2865 119.417 55.9154 119.592 55.6014C119.764 55.2914 119.964 55.0315 120.191 54.8218L121.024 55.6034C120.909 55.7355 120.781 55.8993 120.639 56.0948C120.493 56.2909 120.384 56.5403 120.312 56.8431C120.237 57.1498 120.246 57.5287 120.34 57.9798C120.465 58.5834 120.715 59.0512 121.088 59.3831C121.462 59.7151 121.96 59.8163 122.584 59.6869L124.102 59.3713L124.082 59.2739C123.928 59.2179 123.734 59.1329 123.501 59.0189C123.271 58.9075 123.049 58.7236 122.833 58.4672C122.621 58.2133 122.464 57.843 122.363 57.3562C122.238 56.7526 122.268 56.181 122.454 55.6414C122.64 55.1051 122.977 54.6407 123.464 54.2483C123.952 53.8592 124.585 53.5837 125.364 53.4219C126.13 53.2627 126.825 53.2588 127.449 53.4102C128.076 53.5608 128.595 53.8439 129.006 54.2594C129.421 54.6743 129.694 55.1965 129.824 55.8261C129.926 56.3128 129.925 56.7158 129.822 57.0351C129.723 57.357 129.587 57.6154 129.414 57.8104C129.245 58.008 129.105 58.1624 128.993 58.2738L129.017 58.3906L130.205 58.1438L130.435 59.2536L122.744 60.8518C122.102 60.9853 121.549 60.9479 121.086 60.7394C120.62 60.5349 120.242 60.2072 119.952 59.7563C119.66 59.3093 119.451 58.7873 119.327 58.1902ZM123.428 57.2975C123.523 57.7583 123.71 58.1258 123.987 58.4C124.264 58.6742 124.617 58.8529 125.048 58.9361C125.478 59.0194 125.969 59.0037 126.521 58.889C127.059 58.7771 127.518 58.5972 127.896 58.3493C128.275 58.1014 128.548 57.7941 128.715 57.4276C128.883 57.061 128.918 56.6441 128.821 56.1768C128.72 55.69 128.512 55.31 128.198 55.0368C127.885 54.7667 127.503 54.5938 127.054 54.5178C126.606 54.4451 126.129 54.4614 125.622 54.5666C125.103 54.6745 124.661 54.851 124.295 55.0962C123.934 55.344 123.673 55.6521 123.513 56.0206C123.356 56.3916 123.328 56.8173 123.428 57.2975Z"
          fill="black"/>
    <path d="M123.235 72.0295C123.268 71.5467 123.389 71.1148 123.598 70.7338C123.81 70.3529 124.097 70.0587 124.46 69.851C124.827 69.6435 125.258 69.5567 125.754 69.5906C126.19 69.6205 126.538 69.7306 126.798 69.9211C127.06 70.1119 127.259 70.3564 127.395 70.6547C127.531 70.953 127.625 71.2783 127.677 71.6307C127.733 71.9867 127.771 72.3431 127.793 72.7001C127.821 73.1671 127.84 73.5455 127.85 73.8352C127.864 74.1285 127.904 74.3438 127.971 74.4813C128.037 74.6221 128.165 74.6989 128.354 74.7118L128.393 74.7145C128.883 74.748 129.272 74.6401 129.561 74.3908C129.851 74.1448 130.014 73.7523 130.051 73.2133C130.089 72.6545 129.996 72.208 129.774 71.8738C129.551 71.5396 129.305 71.2986 129.036 71.1506L129.508 70.0667C129.958 70.2968 130.3 70.5859 130.535 70.9343C130.774 71.2861 130.931 71.6623 131.006 72.0628C131.085 72.4668 131.111 72.8606 131.085 73.2442C131.068 73.4889 131.019 73.7679 130.938 74.0813C130.86 74.3982 130.721 74.6993 130.522 74.9847C130.323 75.2734 130.037 75.5046 129.663 75.6784C129.289 75.8521 128.799 75.9183 128.194 75.8769L123.175 75.5336L123.255 74.363L124.286 74.4336L124.29 74.3741C124.13 74.2834 123.963 74.139 123.787 73.941C123.611 73.7429 123.467 73.4856 123.356 73.169C123.245 72.8524 123.205 72.4726 123.235 72.0295ZM124.274 72.28C124.243 72.7429 124.307 73.1393 124.467 73.4692C124.627 73.8024 124.845 74.0599 125.122 74.2416C125.398 74.4266 125.695 74.5299 126.012 74.5516L127.084 74.6249C127.028 74.5713 126.981 74.4584 126.942 74.2864C126.907 74.1179 126.879 73.9233 126.858 73.7025C126.839 73.4853 126.824 73.2733 126.812 73.0665C126.802 72.8632 126.794 72.6982 126.786 72.5714C126.767 72.2645 126.722 71.9757 126.651 71.705C126.583 71.4379 126.466 71.2174 126.302 71.0434C126.141 70.8729 125.912 70.7775 125.614 70.7571C125.207 70.7293 124.89 70.8587 124.661 71.1454C124.435 71.4355 124.306 71.8138 124.274 72.28Z"
          fill="black"/>
    <path d="M122.166 82.1382L129.361 84.6955L128.981 85.7636L127.857 85.364L127.824 85.4577C128.155 85.7441 128.367 86.0921 128.46 86.5018C128.557 86.9125 128.522 87.3521 128.356 87.8206C128.187 88.2953 127.939 88.652 127.611 88.8909C127.286 89.134 126.899 89.2762 126.452 89.3177L126.425 89.3927C126.731 89.709 126.928 90.0903 127.016 90.5365C127.107 90.9838 127.061 91.4651 126.877 91.9804C126.649 92.6238 126.26 93.0784 125.712 93.3444C125.167 93.6114 124.471 93.5945 123.625 93.2937L118.809 91.5822L119.202 90.4767L124.018 92.1882C124.549 92.3769 124.98 92.3665 125.311 92.1571C125.642 91.9477 125.878 91.6462 126.017 91.2527C126.197 90.7468 126.184 90.3005 125.976 89.9137C125.772 89.5281 125.437 89.2526 124.972 89.0873L120.288 87.4224L120.687 86.2981L125.615 88.0495C126.024 88.1949 126.401 88.1793 126.745 88.0026C127.092 87.8271 127.341 87.5301 127.489 87.1116C127.591 86.8243 127.61 86.5285 127.546 86.2243C127.481 85.9232 127.339 85.6478 127.122 85.3982C126.907 85.1529 126.623 84.9675 126.27 84.8421L121.773 83.2438L122.166 82.1382Z"
          fill="black"/>
    <path d="M113.522 100.154C113.946 99.553 114.445 99.1281 115.018 98.8794C115.592 98.6354 116.201 98.5648 116.847 98.6675C117.493 98.7749 118.136 99.0541 118.775 99.5052C119.414 99.9563 119.895 100.47 120.218 101.047C120.542 101.629 120.692 102.226 120.67 102.839C120.648 103.456 120.438 104.046 120.04 104.609C119.811 104.934 119.53 105.217 119.198 105.457C118.866 105.698 118.487 105.862 118.06 105.95C117.635 106.04 117.169 106.021 116.662 105.895C116.155 105.768 115.611 105.499 115.029 105.088L114.622 104.802L118.017 99.9926L118.846 100.577L116.139 104.412C116.491 104.66 116.855 104.811 117.231 104.866C117.604 104.922 117.962 104.879 118.303 104.734C118.642 104.592 118.934 104.348 119.179 104.002C119.449 103.62 119.587 103.223 119.594 102.81C119.602 102.402 119.509 102.017 119.313 101.656C119.118 101.295 118.848 100.993 118.504 100.75L117.952 100.361C117.481 100.028 117.024 99.8272 116.582 99.7584C116.14 99.6942 115.731 99.7482 115.354 99.9202C114.98 100.094 114.656 100.375 114.383 100.762C114.205 101.014 114.079 101.266 114.007 101.519C113.934 101.776 113.917 102.03 113.956 102.28C113.997 102.532 114.097 102.775 114.256 103.01L113.343 103.752C113.098 103.433 112.937 103.074 112.861 102.676C112.788 102.279 112.805 101.865 112.911 101.433C113.02 101.003 113.223 100.576 113.522 100.154Z"
          fill="black"/>
    <path d="M91.5146 120.678C91.8824 120.518 92.2573 120.462 92.6392 120.509C93.0224 120.559 93.3712 120.697 93.6857 120.922C93.9971 121.148 94.2327 121.445 94.3925 121.813C94.5536 122.183 94.6098 122.558 94.5612 122.937C94.5108 123.32 94.3726 123.668 94.1465 123.979C93.9217 124.294 93.6254 124.531 93.2576 124.69C92.8867 124.852 92.5112 124.906 92.131 124.855C91.7491 124.807 91.4024 124.671 91.091 124.445C90.7779 124.223 90.5408 123.926 90.3797 123.556C90.2199 123.188 90.1652 122.812 90.2155 122.429C90.2628 122.047 90.3989 121.699 90.6237 121.384C90.8467 121.074 91.1437 120.839 91.5146 120.678Z"
          fill="black"/>
    <path d="M62.1364 122.909C62.7668 122.995 63.3015 123.231 63.7404 123.616C64.1788 124.004 64.4941 124.509 64.6863 125.131C64.8781 125.756 64.9189 126.469 64.8088 127.27C64.6996 128.065 64.4685 128.736 64.1157 129.283C63.7628 129.83 63.3215 130.229 62.7918 130.481C62.262 130.733 61.6786 130.815 61.0416 130.727C60.5491 130.659 60.1713 130.524 59.9082 130.32C59.6414 130.12 59.4466 129.906 59.324 129.678C59.1977 129.453 59.1009 129.269 59.0335 129.126L58.935 129.113L58.4232 132.836L57.2609 132.677L58.6473 122.59L59.7703 122.744L59.6105 123.906L59.7484 123.925C59.8527 123.799 59.9981 123.642 60.1846 123.453C60.3707 123.268 60.6211 123.113 60.9359 122.989C61.2502 122.869 61.6504 122.842 62.1364 122.909ZM61.8352 123.931C61.369 123.867 60.9583 123.934 60.6031 124.133C60.2474 124.335 59.9561 124.641 59.7291 125.052C59.5016 125.465 59.3486 125.958 59.2701 126.529C59.1924 127.094 59.2066 127.599 59.3126 128.046C59.4181 128.495 59.6155 128.86 59.9048 129.141C60.1936 129.425 60.5744 129.599 61.0473 129.664C61.5398 129.732 61.9676 129.662 62.3307 129.454C62.6901 129.249 62.9814 128.943 63.2047 128.535C63.4243 128.131 63.5706 127.662 63.6437 127.13C63.7177 126.592 63.7029 126.091 63.5992 125.629C63.4917 125.169 63.2933 124.787 63.0039 124.483C62.7107 124.182 62.3212 123.998 61.8352 123.931Z"
          fill="black"/>
    <path d="M47.5554 118.932C48.2303 119.225 48.7477 119.627 49.1078 120.137C49.4634 120.649 49.6566 121.232 49.6874 121.885C49.7138 122.54 49.5712 123.226 49.2595 123.943C48.9479 124.66 48.5425 125.236 48.0434 125.67C47.5399 126.105 46.9859 126.374 46.3813 126.476C45.7724 126.58 45.1518 126.495 44.5195 126.22C44.1547 126.062 43.8208 125.845 43.518 125.569C43.2151 125.292 42.9772 124.954 42.8042 124.554C42.6299 124.157 42.5531 123.697 42.574 123.175C42.5948 122.653 42.7472 122.065 43.0311 121.411L43.2291 120.955L48.6282 123.3L48.2241 124.23L43.9195 122.361C43.7478 122.756 43.6737 123.143 43.6971 123.522C43.7174 123.899 43.833 124.24 44.0439 124.545C44.2518 124.848 44.5503 125.085 44.9394 125.254C45.368 125.44 45.7851 125.495 46.1907 125.418C46.5919 125.343 46.9493 125.173 47.2631 124.908C47.5769 124.643 47.8176 124.318 47.9853 123.932L48.2547 123.311C48.4845 122.782 48.588 122.294 48.5654 121.847C48.5384 121.402 48.4024 121.012 48.1572 120.678C47.9108 120.347 47.5702 120.087 47.1355 119.898C46.8528 119.775 46.5802 119.704 46.3179 119.684C46.0512 119.666 45.7993 119.701 45.5621 119.789C45.3236 119.881 45.1059 120.029 44.9091 120.232L43.9962 119.489C44.2588 119.184 44.5774 118.953 44.952 118.798C45.3253 118.646 45.7342 118.578 46.179 118.594C46.6223 118.613 47.0811 118.726 47.5554 118.932Z"
          fill="black"/>
    <path d="M27.2083 115.106L34.2181 110.964L35.1436 111.717L32.5149 119.423L31.5277 118.62L33.7328 112.569L33.6711 112.519L28.1956 115.909L27.2083 115.106Z" fill="black"/>
    <path d="M24.7327 100.521C25.157 101.122 25.3904 101.734 25.4327 102.357C25.4705 102.98 25.3329 103.578 25.0199 104.152C24.7023 104.725 24.224 105.237 23.5849 105.688C22.9459 106.139 22.3005 106.42 21.6487 106.531C20.9924 106.642 20.3793 106.584 19.8095 106.357C19.2352 106.13 18.7492 105.734 18.3517 105.171C18.1223 104.846 17.95 104.487 17.8346 104.094C17.7193 103.7 17.6918 103.288 17.752 102.856C17.8095 102.426 17.9828 101.993 18.2718 101.558C18.5609 101.122 18.9966 100.699 19.5787 100.288L19.9849 100.002L23.3795 104.811L22.5509 105.396L19.8444 101.561C19.4924 101.81 19.228 102.102 19.0512 102.438C18.8725 102.771 18.794 103.122 18.8159 103.492C18.8358 103.86 18.9681 104.217 19.2127 104.563C19.4822 104.945 19.8102 105.208 20.1966 105.353C20.5784 105.498 20.9721 105.538 21.3778 105.475C21.7835 105.412 22.1583 105.259 22.5022 105.016L23.0545 104.626C23.5257 104.294 23.8677 103.93 24.0807 103.537C24.289 103.142 24.3753 102.739 24.3394 102.326C24.3009 101.915 24.145 101.516 23.8716 101.128C23.6939 100.877 23.4981 100.674 23.2844 100.521C23.066 100.366 22.8325 100.266 22.5839 100.218C22.3325 100.172 22.0699 100.185 21.7959 100.257L21.4022 99.1473C21.7851 99.0231 22.1769 98.9919 22.5776 99.0539C22.9757 99.1178 23.3605 99.2721 23.7321 99.5169C24.101 99.7636 24.4345 100.098 24.7327 100.521Z"
          fill="black"/>
    <path d="M7.97019 90.4279L17.5641 87.0182L17.957 88.1238L8.3631 91.5335L7.97019 90.4279Z" fill="black"/>
    <path d="M14.8079 73.0314C14.8549 73.7192 14.7325 74.3339 14.4407 74.8754C14.1486 75.4136 13.7182 75.8484 13.1495 76.1796C12.5806 76.5076 11.9027 76.6984 11.1157 76.7523C10.3221 76.8066 9.61952 76.7101 9.00795 76.4629C8.39615 76.2124 7.90893 75.8404 7.54628 75.347C7.18341 74.8502 6.97846 74.258 6.93141 73.5702C6.88436 72.8824 7.00688 72.2694 7.29895 71.7311C7.5908 71.1896 8.02284 70.7548 8.59505 70.4266C9.16704 70.0951 9.84984 69.9022 10.6434 69.848C11.4304 69.7941 12.1282 69.8926 12.7367 70.1433C13.3449 70.3907 13.8305 70.7628 14.1934 71.2596C14.556 71.753 14.7608 72.3436 14.8079 73.0314ZM13.7564 73.1033C13.7206 72.5809 13.5573 72.1602 13.2664 71.8412C12.9755 71.5223 12.6063 71.2967 12.1587 71.1645C11.7111 71.0324 11.2327 70.9837 10.7235 71.0185C10.2143 71.0533 9.74531 71.1668 9.31661 71.3589C8.88791 71.551 8.54952 71.825 8.30144 72.1808C8.05336 72.5367 7.94719 72.9758 7.98293 73.4983C8.01867 74.0207 8.18364 74.4413 8.47786 74.76C8.77208 75.0788 9.14462 75.3041 9.59549 75.436C10.0464 75.568 10.5264 75.6165 11.0356 75.5817C11.5449 75.5469 12.0122 75.4335 12.4376 75.2416C12.863 75.0498 13.1981 74.776 13.4428 74.4204C13.6876 74.0648 13.7921 73.6258 13.7564 73.1033Z"
          fill="black"/>
    <path d="M17.747 61.8489L7.4666 59.7126L7.69722 58.6028L8.88492 58.8496L8.91324 58.7133C8.80097 58.6019 8.65975 58.4507 8.48957 58.2596C8.31683 58.0646 8.18028 57.8094 8.07994 57.4941C7.97703 57.1748 7.97615 56.7718 8.0773 56.285C8.20812 55.6555 8.48082 55.1333 8.89539 54.7184C9.30997 54.3035 9.83405 54.0215 10.4676 53.8722C11.1012 53.7228 11.8107 53.7298 12.596 53.893C13.3878 54.0575 14.0461 54.3348 14.571 54.7249C15.0927 55.1142 15.463 55.5805 15.6818 56.1236C15.8975 56.666 15.9406 57.2488 15.8111 57.8718C15.7113 58.3521 15.5519 58.7201 15.3329 58.9759C15.1106 59.231 14.8811 59.4152 14.6442 59.5284C14.4042 59.641 14.2073 59.7254 14.0534 59.7814L14.0332 59.8788L17.9857 60.7001L17.747 61.8489ZM11.4396 59.3601C12.0042 59.4775 12.5195 59.4982 12.9855 59.4224C13.4483 59.3459 13.8344 59.174 14.1438 58.9065C14.4501 58.6384 14.651 58.2739 14.7468 57.8131C14.8466 57.3329 14.8033 56.9058 14.617 56.5319C14.428 56.1542 14.1346 55.8393 13.7368 55.5874C13.3363 55.3315 12.87 55.1483 12.3378 55.0377C11.8121 54.9284 11.3215 54.9111 10.8659 54.9857C10.4077 55.0564 10.0216 55.2283 9.70758 55.5016C9.39095 55.7709 9.18206 56.149 9.08091 56.6357C8.98381 57.103 9.02066 57.5203 9.19146 57.8875C9.35902 58.2541 9.63687 58.5624 10.025 58.8123C10.4099 59.0615 10.8814 59.2441 11.4396 59.3601Z"
          fill="black"/>
    <path d="M20.6481 44.1988C20.3096 44.8521 19.8733 45.341 19.3395 45.6653C18.8041 45.9852 18.2097 46.1382 17.5562 46.1243C16.9012 46.106 16.2265 45.9169 15.532 45.557C14.8375 45.1972 14.291 44.7535 13.8924 44.2259C13.4924 43.6939 13.262 43.1228 13.2011 42.5127C13.1388 41.8981 13.2662 41.2847 13.5834 40.6726C13.7664 40.3195 14.0059 40.0013 14.3021 39.7179C14.5982 39.4346 14.9519 39.2203 15.3631 39.0751C15.7714 38.9283 16.2353 38.8831 16.7548 38.9395C17.2743 38.9959 17.8504 39.188 18.4831 39.5159L18.9245 39.7446L16.2164 44.971L15.3159 44.5044L17.4751 40.3374C17.0925 40.1392 16.7115 40.0388 16.3321 40.0363C15.9541 40.0308 15.6059 40.1229 15.2874 40.3125C14.9705 40.4992 14.7144 40.7808 14.5192 41.1575C14.3042 41.5725 14.2212 41.9848 14.2701 42.3947C14.3177 42.8001 14.4628 43.1683 14.7056 43.4994C14.9484 43.8305 15.2566 44.0929 15.6304 44.2866L16.2307 44.5976C16.7428 44.863 17.2226 44.9996 17.6701 45.0075C18.1163 45.011 18.5144 44.9018 18.8645 44.6801C19.2116 44.4568 19.4942 44.1348 19.7123 43.7139C19.8541 43.4403 19.9439 43.1732 19.9817 42.9129C20.0182 42.6481 20.0003 42.3943 19.9282 42.1516C19.8532 41.9074 19.7208 41.6802 19.5311 41.4699L20.3352 40.6099C20.6216 40.8927 20.8295 41.2263 20.9589 41.6106C21.0853 41.9934 21.1253 42.4061 21.0789 42.8487C21.0296 43.2897 20.8859 43.7398 20.6481 44.1988Z"
          fill="black"/>
    <path d="M27.8552 33.2087L22.2743 27.9965L23.048 27.1681L23.891 27.9553L23.9453 27.8972C23.7642 27.5376 23.712 27.1442 23.7889 26.7171C23.8658 26.2901 24.0603 25.9094 24.3725 25.5751C24.4313 25.5121 24.506 25.4346 24.5967 25.3423C24.6873 25.2501 24.7577 25.1821 24.8078 25.1382L25.6798 25.9526C25.6454 25.9749 25.5723 26.0313 25.4605 26.1219C25.3485 26.2078 25.2394 26.3076 25.133 26.4215C24.8797 26.6928 24.7104 26.9882 24.6251 27.3077C24.5397 27.6225 24.5387 27.9344 24.6219 28.2434C24.705 28.5478 24.8725 28.8176 25.1244 29.0529L28.6561 32.3512L27.8552 33.2087Z"
          fill="black"/>
    <path d="M53.7322 14.7379C53.346 14.8461 52.967 14.8508 52.5951 14.7519C52.2223 14.6499 51.8954 14.4661 51.6145 14.2006C51.3368 13.9342 51.1439 13.6079 51.0357 13.2217C50.9266 12.8324 50.9219 12.4533 51.0217 12.0846C51.1238 11.7118 51.308 11.3865 51.5744 11.1088C51.8399 10.8279 52.1657 10.6334 52.5519 10.5252C52.9412 10.4161 53.3207 10.413 53.6903 10.516C54.0622 10.6149 54.3871 10.7975 54.6648 11.0639C54.9448 11.3262 55.1393 11.652 55.2484 12.0414C55.3566 12.4276 55.3597 12.807 55.2576 13.1798C55.1587 13.5518 54.9766 13.8782 54.7111 14.1591C54.4479 14.4359 54.1216 14.6288 53.7322 14.7379Z"
          fill="black"/>
</svg>
